<svg xmlns="http://www.w3.org/2000/svg" viewBox="0 0 567.5 567.53"><defs><style>.cls-1{fill:#fe690c;}</style></defs><title>资源 1</title><g id="图层_2" data-name="图层 2"><g id="图层_1-2" data-name="图层 1"><path class="cls-1" d="M336,351.82H228.72c-38.86,0-70.34-26.75-70.34-65.6s31.48-65.61,70.34-65.61H336c38.86,0,70.36,26.76,70.36,65.61S374.82,351.82,336,351.82Z"/><path class="cls-1" d="M493.54,120.75c-60.11-52-162.36-54.16-209.7-27.66a4.68,4.68,0,0,0,1.87,8.79c36.77,3,78.24,17.48,103.15,42.4l34.38,34.38a148.69,148.69,0,0,1,0,210.22l-34.38,34.35a148.63,148.63,0,0,1-210.21,0l-34.36-34.35a148.64,148.64,0,0,1,0-210.22L299.83,23.15c8.42-8.43,2.58-22.7-9.34-23C288.26,0,286,0,283.75,0A247.73,247.73,0,0,0,107.41,73.06L73,107.41a249.41,249.41,0,0,0,0,352.7l34.37,34.38a249.4,249.4,0,0,0,352.69,0l34.36-34.38a247.7,247.7,0,0,0,73-176.34c0-66.56-26.61-115.65-73.62-162.7A3.47,3.47,0,0,0,493.54,120.75Z"/></g></g></svg>